#!OML:ASF E:\motion texture\Top Level 1\Subject 1\Session 1\male.ASF
:FULLY-SPECIFIED
:DEGREES
491
root -9.86555 17.7867 5.24163 442.218 -85.8721 -436.948
lowerback -5.72984 4.23915 4.55279
upperback -5.41591 5.32495 1.4357
thorax -2.12045 2.47706 -0.839611
lowerneck -0.145441 -0.485688 -8.24214
upperneck -22.3533 0.844411 14.8116
head -6.73387 -0.344419 6.3084
rclavicle -7.23079e-015 -1.59028e-014
rhumerus 1.65376 9.28949 -79.0355
rradius 53.9559
rwrist -13.6957
rhand -5.60128 -28.9671
rfingers 7.12502
rthumb 20.2156 -57.9352
lclavicle -7.23079e-015 -1.59028e-014
lhumerus -15.9123 1.60364 75.1111
lradius 59.1422
lwrist -5.04709
lhand -14.6918 27.0404
lfingers 7.12502
lthumb 11.462 56.707
rfemur -0.25579 -0.927956 24.6573
rtibia 40.4258
rfoot 1.72067 -8.41933
rtoes -3.9246
lfemur -25.2928 -4.85251 -12.9062
ltibia 19.089
lfoot -1.92725 5.19352
ltoes -6.04809
492
root -10.0318 17.7936 5.26546 437.31 -86.0139 -432.139
lowerback -5.65946 4.18772 4.34553
upperback -5.36963 5.2717 1.3408
thorax -2.12186 2.45829 -0.829316
lowerneck -0.082061 -0.666953 -8.26773
upperneck -22.6288 0.624837 14.9564
head -6.80355 -0.470625 6.38712
rclavicle 1.94064e-014 8.74653e-015
rhumerus 2.14558 8.98389 -78.9436
rradius 54.2797
rwrist -14.1467
rhand -5.33166 -29.0694
rfingers 7.12502
rthumb 20.4747 -58.0098
lclavicle 1.94064e-014 8.74653e-015
lhumerus -16.9647 2.15594 75.7723
lradius 57.6801
lwrist -5.61363
lhand -14.9057 27.1176
lfingers 7.12502
lthumb 11.2557 56.7956
rfemur -1.05527 -1.29846 24.2638
rtibia 41.9323
rfoot 2.75529 -8.57899
rtoes -3.1566
lfemur -24.6979 -4.96035 -13.402
ltibia 19.1708
lfoot -2.04402 4.75526
ltoes -5.8066
493
root -10.1971 17.8009 5.28869 431.922 -86.12 -426.851
lowerback -5.5805 4.13632 4.13572
upperback -5.32251 5.21874 1.24676
thorax -2.12738 2.43961 -0.817125
lowerneck -0.015737 -0.85135 -8.2977
upperneck -22.8905 0.400164 15.1013
head -6.86835 -0.598409 6.46678
rclavicle -7.89921e-014 -3.29983e-014
rhumerus 2.66604 8.65198 -78.8385
rradius 54.5968
rwrist -14.6047
rhand -5.06684 -29.1857
rfingers 7.12502
rthumb 20.7292 -58.0986
lclavicle -7.89921e-014 -3.29983e-014
lhumerus -17.9462 2.76514 76.3842
lradius 56.167
lwrist -6.16438
lhand -15.1046 27.2004
lfingers 7.12502
lthumb 11.0638 56.8888
rfemur -1.90561 -1.68657 23.8787
rtibia 43.4286
rfoot 3.70861 -8.75249
rtoes -2.37445
lfemur -24.0893 -5.06964 -13.8943
ltibia 19.2355
lfoot -2.1696 4.31714
ltoes -5.55027
494
root -10.3614 17.8088 5.31131 426.145 -86.1824 -421.171
lowerback -5.49217 4.08481 3.92616
upperback -5.27362 5.16576 1.15477
thorax -2.13635 2.42083 -0.803379
lowerneck 0.0526373 -1.03874 -8.33229
upperneck -23.1403 0.170565 15.2461
head -6.9287 -0.72768 6.54731
rclavicle -8.77137e-015 2.06736e-014
rhumerus 3.21809 8.29619 -78.7197
rradius 54.9065
rwrist -15.069
rhand -4.80783 -29.3157
rfingers 7.12502
rthumb 20.978 -58.2012
lclavicle -8.77137e-015 2.06736e-014
lhumerus -18.8572 3.42913 76.9442
lradius 54.6116
lwrist -6.6978
lhand -15.2873 27.2872
lfingers 7.12502
lthumb 10.8877 56.985
rfemur -2.80263 -2.092 23.5053
rtibia 44.904
rfoot 4.5676 -8.94127
rtoes -1.61248
lfemur -23.4685 -5.18036 -14.3798
ltibia 19.2849
lfoot -2.30504 3.88242
ltoes -5.28565
495
root -10.5247 17.817 5.33327 420.137 -86.1969 -415.259
lowerback -5.3919 4.03381 3.71714
upperback -5.22649 5.11362 1.06505
thorax -2.15385 2.40219 -0.788272
lowerneck 0.128066 -1.22877 -8.36942
upperneck -23.3794 -0.0637123 15.3889
head -6.98586 -0.85848 6.62777
rclavicle 2.85008e-014 1.13307e-014
rhumerus 3.79611 7.91524 -78.5907
rradius 55.2098
rwrist -15.5365
rhand -4.55585 -29.4562
rfingers 7.12502
rthumb 21.2201 -58.3147
lclavicle 2.85008e-014 1.13307e-014
lhumerus -19.7057 4.143 77.4488
lradius 53.023
lwrist -7.21883
lhand -15.4533 27.3747
lfingers 7.12502
lthumb 10.7275 57.0808
rfemur -3.74402 -2.51334 23.1448
rtibia 46.3486
rfoot 5.32835 -9.14653
rtoes -0.859464
lfemur -22.8371 -5.2916 -14.8567
ltibia 19.3172
lfoot -2.44939 3.45284
ltoes -5.01053
496
root -10.6868 17.8257 5.35453 414.094 -86.1599 -409.309
lowerback -5.28316 3.98305 3.51096
upperback -5.17892 5.06156 0.979024
thorax -2.17561 2.3834 -0.771299
lowerneck 0.208681 -1.42012 -8.41072
upperneck -23.6094 -0.30071 15.5307
head -7.04022 -0.989841 6.70877
rclavicle 4.2366e-014 1.35174e-014
rhumerus 4.4048 7.51348 -78.4508
rradius 55.506
rwrist -16.0091
rhand -4.3121 -29.6098
rfingers 7.12502
rthumb 21.4542 -58.4418
lclavicle 4.2366e-014 1.35174e-014
lhumerus -20.4925 4.9066 77.8961
lradius 51.4099
lwrist -7.73
lhand -15.6013 27.4645
lfingers 7.12502
lthumb 10.5848 57.1779
rfemur -4.72528 -2.9487 22.8003
rtibia 47.7499
rfoot 5.98794 -9.37105
rtoes -0.118816
lfemur -22.196 -5.40446 -15.3214
ltibia 19.3319
lfoot -2.60359 3.03216
ltoes -4.72649
497
root -10.8476 17.8346 5.37503 408.197 -86.0712 -403.499
lowerback -5.16584 3.93231 3.30801
upperback -5.13184 5.00925 0.89675
thorax -2.20267 2.36426 -0.752672
lowerneck 0.294027 -1.61296 -8.45389
upperneck -23.8308 -0.540794 15.6701
head -7.09184 -1.12202 6.78936
rclavicle 3.22155e-014 -8.94531e-016
rhumerus 5.0442 7.09188 -78.3018
rradius 55.7951
rwrist -16.4872
rhand -4.0794 -29.7753
rfingers 7.12502
rthumb 21.6777 -58.5817
lclavicle 3.22155e-014 -8.94531e-016
lhumerus -21.2202 5.71625 78.2841
lradius 49.7795
lwrist -8.23519
lhand -15.7329 27.5463
lfingers 7.12502
lthumb 10.4578 57.2662
rfemur -5.74426 -3.39758 22.4729
rtibia 49.0988
rfoot 6.54025 -9.61568
rtoes 0.574236
lfemur -21.5493 -5.51841 -15.7723
ltibia 19.3306
lfoot -2.7687 2.62167
ltoes -4.4397
498
root -11.0071 17.8438 5.39472 402.612 -85.9328 -397.998
lowerback -5.04146 3.8817 3.10903
upperback -5.08501 4.95667 0.818559
thorax -2.23391 2.34477 -0.732327
lowerneck 0.385061 -1.80627 -8.49857
upperneck -24.0454 -0.782442 15.8072
head -7.1417 -1.25442 6.8696
rclavicle -1.34304e-014 -4.27387e-015
rhumerus 5.7142 6.6514 -78.1454
rradius 56.0769
rwrist -16.9708
rhand -3.85736 -29.9538
rfingers 7.12502
rthumb 21.8909 -58.7354
lclavicle -1.34304e-014 -4.27387e-015
lhumerus -21.8922 6.56988 78.612
lradius 48.1394
lwrist -8.73894
lhand -15.8463 27.6268
lfingers 7.12502
lthumb 10.3485 57.3522
rfemur -6.7958 -3.85807 22.1639
rtibia 50.3836
rfoot 6.98455 -9.88263
rtoes 1.22346
lfemur -20.8984 -5.63474 -16.2076
ltibia 19.313
lfoot -2.94455 2.22303
ltoes -4.14776
499
root -11.1653 17.8533 5.41356 397.485 -85.7481 -392.948
lowerback -4.91288 3.83178 2.91559
upperback -5.03804 4.90433 0.745891
thorax -2.26729 2.32519 -0.709409
lowerneck 0.482676 -1.99974 -8.54423
upperneck -24.2546 -1.02543 15.9408
head -7.19044 -1.38693 6.94895
rclavicle 1.98909e-014 4.77083e-015
rhumerus 6.41543 6.19171 -77.9824
rradius 56.3511
rwrist -17.4587
rhand -3.64953 -30.1424
rfingers 7.12502
rthumb 22.0905 -58.9005
lclavicle 1.98909e-014 4.77083e-015
lhumerus -22.5123 7.46455 78.8808
lradius 46.4965
lwrist -9.24641
lhand -15.9473 27.696
lfingers 7.12502
lthumb 10.251 57.4262
rfemur -7.87594 -4.32763 21.8762
rtibia 51.594
rfoot 7.32083 -10.1723
rtoes 1.83015
lfemur -20.2458 -5.75282 -16.6239
ltibia 19.2806
lfoot -3.13148 1.83822
ltoes -3.85681
500
root -11.3221 17.8628 5.43154 392.86 -85.5237 -388.395
lowerback -4.77698 3.78156 2.72728
upperback -4.99134 4.85108 0.678337
thorax -2.305 2.30494 -0.684387
lowerneck 0.584411 -2.19177 -8.59223
upperneck -24.4568 -1.2672 16.0734
head -7.23736 -1.51834 7.02837
rclavicle 1.32937e-014 1.42131e-014
rhumerus 7.14731 5.71741 -77.8152
rradius 56.6178
rwrist -17.9534
rhand -3.45625 -30.3424
rfingers 7.12502
rthumb 22.276 -59.0785
lclavicle 1.32937e-014 1.42131e-014
lhumerus -23.0854 8.40191 79.0876
lradius 44.8588
lwrist -9.76365
lhand -16.0324 27.7549
lfingers 7.12502
lthumb 10.1689 57.4891
rfemur -8.97815 -4.80419 21.6078
rtibia 52.7195
rfoot 7.54957 -10.4855
rtoes 2.39443
lfemur -19.5899 -5.8744 -17.0223
ltibia 19.2308
lfoot -3.32837 1.47133
ltoes -3.56761
501
root -11.4776 17.8725 5.44864 388.761 -85.2651 -384.36
lowerback -4.63698 3.73166 2.54484
upperback -4.94529 4.79756 0.616005
thorax -2.34559 2.28434 -0.657328
lowerneck 0.693536 -2.38229 -8.64096
upperneck -24.6548 -1.50767 16.2043
head -7.28407 -1.64885 7.1075
rclavicle 5.94863e-014 1.17283e-014
rhumerus 7.90837 5.22844 -77.6449
rradius 56.8772
rwrist -18.4547
rhand -3.27546 -30.5543
rfingers 7.12502
rthumb 22.4496 -59.2696
lclavicle 5.94863e-014 1.17283e-014
lhumerus -23.6158 9.37985 79.233
lradius 43.2322
lwrist -10.2973
lhand -16.1016 27.7969
lfingers 7.12502
lthumb 10.1021 57.5344
rfemur -10.0985 -5.28609 21.359
rtibia 53.7506
rfoot 7.6716 -10.8226
rtoes 2.91363
lfemur -18.9345 -5.99982 -17.4019
ltibia 19.1662
lfoot -3.53567 1.12523
ltoes -3.28764
502
root -11.6318 17.8823 5.46484 385.186 -84.9775 -380.843
lowerback -4.49195 3.68195 2.37006
upperback -4.90108 4.74359 0.559565
thorax -2.39072 2.2632 -0.628634
lowerneck 0.808973 -2.57045 -8.69092
upperneck -24.8475 -1.74563 16.334
head -7.33014 -1.77783 7.18649
rclavicle -3.557e-014 -1.91827e-014
rhumerus 8.69626 4.726 -77.4742
rradius 57.1286
rwrist -18.9615
rhand -3.10813 -30.7789
rfingers 7.12502
rthumb 22.6102 -59.4747
lclavicle -3.557e-014 -1.91827e-014
lhumerus -24.1103 10.3987 79.3156
lradius 41.6228
lwrist -10.8552
lhand -16.1599 27.8247
lfingers 7.12502
lthumb 10.0459 57.5649
rfemur -11.232 -5.7699 21.1317
rtibia 54.6775
rfoot 7.69113 -11.1836
rtoes 3.39721
lfemur -18.2819 -6.12815 -17.7602
ltibia 19.089
lfoot -3.75329 0.801909
ltoes -3.02683
503
root -11.7847 17.8921 5.48015 382.097 -84.6667 -377.804
lowerback -4.34322 3.63291 2.20357
upperback -4.85808 4.68975 0.508973
thorax -2.43892 2.24186 -0.598568
lowerneck 0.928741 -2.75655 -8.74143
upperneck -25.0338 -1.98152 16.462
head -7.37476 -1.90543 7.26496
rclavicle -3.56694e-014 -2.01766e-014
rhumerus 9.51023 4.21105 -77.304
rradius 57.3725
rwrist -19.4738
rhand -2.95642 -31.0124
rfingers 7.12502
rthumb 22.7558 -59.6903
lclavicle -3.56694e-014 -2.01766e-014
lhumerus -24.573 11.4595 79.3353
lradius 40.0359
lwrist -11.4475
lhand -16.202 27.8361
lfingers 7.12502
lthumb 10.0053 57.5783
rfemur -12.3719 -6.25273 20.9246
rtibia 55.4905
rfoot 7.61085 -11.5659
rtoes 3.84677
lfemur -17.6323 -6.26067 -18.0968
ltibia 18.9992
lfoot -3.9812 0.504033
ltoes -2.77035
504
root -11.9363 17.9018 5.49455 379.436 -84.3376 -375.185
lowerback -4.1924 3.58349 2.04456
upperback -4.81566 4.63465 0.464594
thorax -2.48877 2.21968 -0.566212
lowerneck 1.05144 -2.93984 -8.79037
upperneck -25.215 -2.21456 16.5859
head -7.41847 -2.03129 7.34161
rclavicle 1.25731e-014 -8.84592e-015
rhumerus 10.3516 3.68776 -77.1366
rradius 57.6086
rwrist -19.9932
rhand -2.82254 -31.2559
rfingers 7.12502
rthumb 22.8843 -59.918
lclavicle 1.25731e-014 -8.84592e-015
lhumerus -25.0079 12.5629 79.2918
lradius 38.4777
lwrist -12.0743
lhand -16.2371 27.839
lfingers 7.12502
lthumb 9.97138 57.5828
rfemur -13.5135 -6.73173 20.7363
rtibia 56.1815
rfoot 7.42946 -11.9716
rtoes 4.27503
lfemur -16.9879 -6.39576 -18.4129
ltibia 18.8994
lfoot -4.21932 0.230569
ltoes -2.52822
